<?xml version="1.0" encoding="UTF-8"?>
<svg id="Capa_2" data-name="Capa 2" xmlns="http://www.w3.org/2000/svg" viewBox="0 0 1587.09 798.98">
  <g id="Capa_1-2" data-name="Capa 1">
    <g>
      <path d="M127.8,97.82c-12.44-2.9-42.44-9.91-65.83,5.08-39.2,25.13-10.21,80.28-37.19,190.8-15.36,62.92-35.96,90.97-17.47,118.35,12.35,18.28,38.93,31.51,62.94,26.74,30.27-6.01,43.52-38.05,44.99-41.79,19.89-50.24-28.59-93.07-9.4-116.46,14.11-17.2,59.13-16.95,79.86,3.83,36.85,36.94-22.11,119.67,9.86,146.41,18.65,15.6,63.5,8.18,83.94-15.2,58.57-67.01-26.78-288.6-151.71-317.76ZM174.62,206.32c-5.72,2.52-10.56,3.3-12.18,3.56-13.74,2.23-19.82,4.17-36.8,5.59-5.29.44-9.57.66-12.79-2.1-2.88-2.47-3.55-6.17-3.73-8.37-.11-3.03-.16-7.24.13-12.25.33-5.66.6-10.4,1.84-15.35,1.53-6.15,4.31-17.32,14.47-23.02,6.43-3.61,12.89-3.39,15.54-3.27,1.57.07,11.62.69,19.92,8.16,2.33,2.1,3.3,3.63,9.07,14.33,11.18,20.71,13.35,25.69,10.98,29.05-.86,1.22-2.72,2.04-6.44,3.68Z"/>
      <path d="M782.39,427.13c117.15-171.14,189.87-185.65,200.5-293.57,2.35-23.82,9.35-94.9-32.39-122.2-32.76-21.42-87.13-10.38-120.3,14.9-116.3,88.62,7.43,367.7,58.61,423.21,7.88,8.54,26.56,28.81,49.35,26.82,14.91-1.3,29.68-11.96,35.47-23.84,17.5-35.86-49.77-76.42-91-157.96-46.29-91.54-47.2-209.9-9.25-228,16.98-8.1,44.32,2.64,53.98,19.37,17.09,29.6-20.83,78.55-64.9,135.44-23.52,30.36-49.41,63.77-92.41,101.5-39.84,34.96-62.77,45.9-67.86,74.51-5.45,30.64,12.11,67.24,32.39,70.04,18.98,2.62,37.26-24.83,47.81-40.23Z"/>
      <path d="M1149.15,177.97c-39.52-32.13-101.33-37.85-146.02-19.37-86.51,35.78-120.81,167.19-59.32,236.58,41.12,46.39,109.45,47.44,173.4,48.42,20.91.32,39.4-1.63,50.2-13.83,11.72-13.25,12.01-37.07,1.52-45.65-7.85-6.43-17.3-.69-46.26-.74-12.31-.02-20.58-1.08-36.54-3.11-43.94-5.61-79.24-10.12-93.38-33.72-7.97-13.3-11.48-36.44,0-49.28,15.69-17.55,48.25-3.39,132.06-3.07,48.58.18,56.17-4.69,60.84-9.68,20.44-21.87.18-76.7-36.51-106.53ZM1114.44,256.43c-1.68,1.04-9.43,1.23-24.86,1.58-8.54.19-12.8.2-14.12.18-6.18-.11-12.36-.39-18.54-.45-14.75-.16-18.26.28-26.92-.89-6.82-.93-10.27-1.43-12.41-3.15-8-6.46-3.44-21.62-1.68-27.48,1.58-5.24,4.31-14.33,13.43-22.29,11.16-9.75,24.37-11.25,30.21-11.91,5.56-.63,22.35-2.3,38.44,7.44,3.18,1.92,14.69,9.11,20.01,23.01,4.12,10.75,5.61,28.33-3.56,33.97Z"/>
      <path d="M635.97,566.67c17.94,54.5-12.99,109.16-8.31,179.17.2,3.03.79,10.41,5.93,16.61,13.04,15.74,48.35,15.5,60.52,0,5.58-7.11,3.18-13.45,1.19-42.72-2.46-36.1-3.56-54.47,2.37-70.01,6.74-17.64,23.79-40.61,41.53-39.16,19.25,1.58,32.58,31.39,36.78,51.02,6.99,32.7-8.14,52.14,3.56,62.89,8.88,8.16,29.02,7.46,37.97-2.37,17.43-19.16-20.53-58.83-3.56-90.18,11.19-20.67,43.99-33.56,59.33-23.73,31.54,20.21-29.02,124.82,10.68,159,20.06,17.27,60.71,12.24,71.19-4.75,7.43-12.03-3.92-24.16-11.87-54.58-15.57-59.63,11-78.28-7.12-115.1-14.15-28.76-48.61-54.49-77.13-49.84-30.86,5.04-42.04,43.6-64.08,39.16-15.43-3.11-13.58-22.75-30.85-29.66-31.24-12.51-73.49,37.31-85.43,27.29-8.33-6.99,11.16-32.15,0-46.28-9.81-12.43-39.36-11.29-47.46,1.19-5.53,8.52.66,19.64,4.75,32.04Z"/>
      <path d="M955.95,559.59c-27.55,55.91-47.32,164.45,12.79,205.48,38.1,26.01,86.84,10.26,91.15,8.79,87.19-29.61,122.62-165.35,86.35-205.48-13.53-14.97-40.84-20.86-54.37-11.19-11.28,8.07-7.57,23.11-11.99,59.17-4.29,35.01-9.97,81.35-32.78,89.55-14.83,5.33-33.65-6.61-43.18-17.59-25.02-28.85-16.82-86.85,11.19-112.74,8.35-7.72,16.23-10.52,18.39-19.99,3.95-17.36-14.71-42.26-32.78-43.18-21-1.07-36.56,30.51-44.77,47.17Z"/>
      <path d="M1260.39,555.67c-7.05-20.7-42.06-22.66-46.45-22.9-6.75-.38-27.52-.59-46.87,13.31-17.61,12.65-35.83,38.28-29.18,60.8,8.38,28.37,52.3,38.47,68.41,42.17,35.1,8.07,59.22.54,65.55,13.15,3.79,7.56-.72,18.53-7.1,24.5-18.56,17.35-60.81-.17-69.4-3.73-29.16-12.09-33.89-25.46-47.4-23.14-19.76,3.39-38.31,36.88-31.19,60.8,11.61,38.99,95.93,67.68,153.45,35.31,45.98-25.87,70.94-88.56,51.36-119.84-25.75-41.14-125-22.32-126.77-40.48-.66-6.74,12.36-16.1,24.11-17.72,15.68-2.16,24.25,10.12,33.54,5.62,8.04-3.9,11.33-17.83,7.92-27.84Z"/>
      <path d="M1309.26,739.93c31.68-71.81-23-134.6,5.27-164.13,21.5-22.46,76.41-10.45,83.09,10.35,7.85,24.42-53.45,46.88-55.33,96.85-1.36,35.93,32.13,49.78,23.32,80.63-4.83,16.93-20.26,32.31-37.83,34.9-9.13,1.35-24.61.1-30.59-10-7.7-12.98,5.05-32.68,12.08-48.61Z"/>
      <path d="M1324.39,527.07c-5.36-13.65,2.48-28.93,12.25-32.74,14.01-5.46,32.85,12.33,30.93,28.25-1.04,8.55-7.93,15.49-15.17,17.98-10.31,3.54-23.23-1.32-28.01-13.48Z"/>
      <path d="M1505.65,528.37c-7.83-1.04-47.94-5.81-81.88,17.98-56.5,39.6-79.77,144.66-24.69,197.75,50.67,48.85,148.24,35.53,176.76-6.42,13.83-20.34,14.66-51.22,3.9-57.78-12.46-7.59-31.67,22.74-66.28,20.55-18.18-1.15-37.75-11.1-48.09-28.25-14.09-23.38-10.79-59.77,13-75.76,18.67-12.55,46.84-4.06,51.99-2.57,19.09,5.55,26.18,15.43,37.71,11.93,9.51-2.88,17.77-13.57,18.13-23.67.86-24.07-42.91-48.73-80.54-53.75Z"/>
      <path d="M486.43,118.07s-60.02-42.81-140.68-11.07c-9.49,3.73-26.22,10.54-40.95,27-2.76,3.09-13.19,15.16-20.4,36.53-3.65,10.8-7.95,27.93-5.35,68.24,2.13,32.95,6.34,42.62,11.4,81.72,0,0,4.31,33.31,5.74,64.96,3.35,74.59-12.04,89.13-7.73,154.91,2.95,44.91,4.38,72.97,25.25,85.05,27.43,15.89,78.72-1.17,94.52-31.94,9.5-18.51,3.76-37.83-1.92-57.84-12.41-43.73-33.18-46.86-42.67-83.19-6.88-26.31-7.53-68.82,15.67-86.17,20.94-15.66,41.33,4.12,75.77-4.84,46.46-12.09,84.83-67.73,88.19-123.62.29-4.78,2.58-77.35-56.85-119.75ZM500.59,232.3c-.97,14.38-4.36,28.69-12.34,41.09-7.26,11.29-17.46,20.65-28.92,27.87-21.33,13.44-50.28,20.59-74.34,11.23-27.58-10.72-37.62-39.22-37.4-66.39.12-14.65,2.99-30.66,11.79-43.06,9.52-13.41,25.63-18.63,41.76-17.81,15.26.77,31.99,6.9,39.33,20.63,5.92,11.06,6.45,24.91,2.38,36.81-3.97,11.63-13.15,22.08-26.05,24.23-11.93,1.99-27.4-2.13-32.94-13.3-4.02-8.12-2.7-18.9,3.19-26.07,6.58-8.01,16.16-6.06,20.34,2.75,1.28,2.7-5.98,5.08-7.44,3.88-.61-.5-.4-1.5-1.57-2.57-.32-.3-.88-.79-1.7-.87-.95-.09-1.71.42-2.03.63-.44.3-.71.62-.98.96-.63.79-1.49,2.03-1.89,2.94-.96,2.17-.99,6.24-.2,8.84,1.99,6.51,11.78,12.34,19.3,10.81,12.32-2.5,21.31-25.31,13.76-40.13-4.85-9.52-15.08-12.9-19.02-14.21-3.65-1.21-15.83-5.24-25.33,1.16-4.68,3.16-6.64,7.45-9.51,13.97-1.72,3.9-6.01,13.92-6.02,27.05,0,2.91.31,30.36,17.43,44.63,23.93,19.95,73.12,7.84,92.79-23.07,16.7-26.23,6.72-57.46,5.16-62.09-5.15-15.32-14.02-25.07-17.28-28.42-5.82-5.98-18.41-16.88-36.33-20.58-24.32-5.01-50.06,4.99-66.13,20.65-25.18,24.53-25.12,61.43-38.2,61.07-2.99-.08-6.11-2.09-7.74-4.43-3.49-5.03-.74-12.61,3.85-22.82,8.81-19.57,13.21-29.35,20.52-38.05,4.87-5.79,15.06-17.68,32.77-26.22,6.42-3.1,27.08-12.72,54-8.37,7.42,1.2,23.81,4.83,39.78,17.21,37.16,28.79,35.43,76.48,35.19,80.05Z"/>
      <path d="M760.52,131.4s-53.06-51.18-137.52-31.66c-9.94,2.3-27.49,6.56-44.47,20.68-3.18,2.65-15.28,13.06-25.55,33.12-5.2,10.14-11.98,26.45-15.34,66.71-2.74,32.9,0,43.09-.75,82.51,0,0-.64,33.58-3.89,65.1-7.66,74.27-25.03,86.39-30.45,152.09-3.7,44.85-6.41,72.82,12.45,87.84,24.8,19.76,78.04,10.44,98.19-17.67,12.12-16.91,9.29-36.87,6.62-57.49-5.84-45.08-25.92-51.24-29.96-88.57-2.93-27.04,2.69-69.18,28.18-82.93,23.01-12.41,40.27,10.16,75.66,6.37,47.74-5.12,93.87-54.51,105.43-109.29.99-4.68,13.94-76.13-38.6-126.81ZM757.72,246.48c-3.08,14.08-8.53,27.73-18.26,38.83-8.85,10.1-20.31,17.85-32.71,23.31-23.08,10.16-52.76,12.96-75.18.16-25.7-14.67-31.44-44.33-27.22-71.17,2.28-14.48,7.47-29.88,18-40.85,11.39-11.86,28.09-14.65,43.93-11.47,14.98,3.01,30.62,11.53,35.86,26.19,4.22,11.81,2.72,25.59-3.06,36.76-5.64,10.92-16.26,19.9-29.33,20.13-12.09.21-26.79-6.14-30.62-18.01-2.78-8.62.11-19.09,6.99-25.31,7.69-6.95,16.87-3.61,19.71,5.72.87,2.86-6.67,4.15-7.93,2.74-.53-.59-.17-1.54-1.17-2.77-.28-.34-.75-.91-1.55-1.11-.93-.23-1.75.16-2.1.33-.48.23-.8.51-1.11.8-.74.69-1.77,1.79-2.3,2.63-1.27,2-1.9,6.02-1.5,8.71,1.01,6.73,9.84,13.94,17.49,13.53,12.55-.66,24.8-21.9,19.52-37.67-3.4-10.13-13.02-14.98-16.72-16.85-3.43-1.73-14.89-7.51-25.22-2.58-5.1,2.43-7.67,6.4-11.46,12.42-2.27,3.6-7.99,12.88-9.94,25.87-.43,2.87-4.16,30.08,10.67,46.71,20.73,23.26,71.17,18.52,95.18-9.16,20.37-23.48,15.1-55.85,14.25-60.66-2.84-15.91-10.18-26.86-12.91-30.65-4.88-6.77-15.72-19.41-32.9-25.7-23.32-8.54-50.25-2.43-68.45,10.69-28.52,20.55-33.89,57.06-46.78,54.78-2.94-.52-5.74-2.97-7-5.52-2.71-5.49,1.12-12.58,7.17-22.01,11.59-18.06,17.39-27.09,25.9-34.62,5.67-5.01,17.5-15.27,36.27-21.12,6.81-2.12,28.65-8.59,54.64-.33,7.16,2.28,22.84,8.28,36.82,22.87,32.52,33.94,23.78,80.86,23.02,84.36Z"/>
    </g>
  </g>
</svg>