<?xml version="1.0" encoding="UTF-8"?>
<svg id="Capa_2" data-name="Capa 2" xmlns="http://www.w3.org/2000/svg" viewBox="0 0 712.57 680.74">
  <g id="Capa_1-2" data-name="Capa 1">
    <path d="M525.56,0c-6.41,6.21-15.44,14.8-26.47,24.87-11.83,10.79-17.9,16.3-25.67,22.46-20.7,16.4-23.06,13.65-32.09,22.46-18.49,18.04-9.05,30-25.67,48.94-3.42,3.9-18.86,12.05-49.72,28.33-20.27,10.7-26.21,13.42-35.19,14.1-9.82.74-19.16-1.26-36.76-9.28-23.01-10.49-49.86-22.72-75.65-51.18-19.02-20.99-15.39-26.45-31.58-43.94-22.55-24.36-49.78-35.57-68.66-41.2,13.23,28.84,19.08,53,21.97,70.03,2.85,16.8,2.25,23.36,6.87,38.45,7.57,24.75,14.83,25.53,26.09,52.18,1.21,2.85,1.1,2.79,16.02,63.18,5.15,20.84,7.25,29.31,2.53,37.83-5.54,9.98-14.21,8.76-25.42,18.46-15.42,13.34-12.62,27.42-21.97,45.31-10.76,20.61-21.09,14.62-59.05,45.31-20.36,16.47-34.98,32.41-63.17,63.17-9.23,10.07-16.74,18.64-21.97,24.72,23.15-.74,48.71-4.16,75.52-12.36,18.4-5.63,18.16-7.63,45.31-16.48,33.94-11.06,30.89-6.83,74.15-19.22,25.97-7.44,32.58-10.55,42.57-6.87,10.13,3.73,11.08,9.79,30.16,26.1,16.54,14.15,17.92,11.39,29.08,21.81,11.95,11.16,27.66,25.84,29.08,45.44,1.47,20.26-13.85,25.08-9.95,43.55,2.78,13.16,11.29,14.25,19.04,33.69,4.23,10.62,4.83,18.19,6.32,29.08,1.99,14.62,5.61,35.53,12.77,61.79,10.53-35.36,21.14-62.38,29.08-80.88,7.88-18.35,13.94-30.23,14.94-49.18,1.12-21.15-5.52-23.62-4.03-45.33.66-9.59,2.72-34.69,20.75-54.04,8.2-8.8,17.17-13.7,24.99-17.96,14.95-8.15,18.96-6.38,35.19-14.1,18.81-8.94,16.69-12.87,33.95-20.81,16.7-7.69,31.4-9.86,40.14-11.09,11.33-1.59,19.79-1.45,36.73-1.16,15.26.26,23.03.43,30.32,2.76,14.37,4.58,13.61,10.13,26.92,14.42,10.33,3.33,19.28,2.47,37.17.74,8.11-.78,19.25-2.3,32.39-5.51-17.33-11.78-30.66-21.95-39.73-29.15-12.39-9.84-19.32-16.11-32.13-21.07-8.89-3.44-10.48-2.32-24.23-6.32-8.26-2.4-22.87-6.65-35.82-14.22-22.59-13.21-17.65-23.38-35.29-31.61-19.81-9.23-30.55,1.49-44.73-9.51-5.01-3.89-8.91-12.33-16.49-29.06-9.51-20.98-14.27-31.47-15.54-39.44-4.2-26.37,5.67-49.78,8.02-55.36,4.2-9.97,8.4-15.58,13.64-31.29,2.99-8.96,4.82-14.47,5.62-22.46,1.46-14.64-2.42-19.08,0-29.68,2.32-10.13,8.1-15.88,12.03-20.86,8.03-10.15,16.58-27.44,17.65-58.56ZM434.99,251.7c-.34,14.81,8.88,20.05,17.68,38.52,3.44,7.21,16.49,34.61,5.74,49.34-2.82,3.87-4.46,2.98-11.83,8.65-14.08,10.81-14.71,19.09-24.16,29.09-11.29,11.95-30.18,21.1-47.65,19.5-7.36-.67-5.89-2.46-30.3-9.59-20.77-6.06-21.24-4.59-25.23-7.62-11.77-8.94-5.1-19.8-17.6-43.36-8.13-15.32-15.02-18.39-14.34-28.53.43-6.43,3.3-6.67,9.84-21.21,7.52-16.72,6.04-21.54,11.93-25.87,5.63-4.13,8.92-1.15,22.61-2.9,18.9-2.42,20.24-9.06,37.55-10.64,7.95-.73,18.57-1.7,27.66,4.57,4.08,2.82,3.61,4.91,13.38,21.86,8.15,14.13,9.04,14.01,9.77,17.84.68,3.54.6,7.19-7.57,29-7.15,19.09-9,21.39-11.58,23.34-7.26,5.48-15.96,4.93-23.69,4.43-6.87-.44-24.56-1.58-31.78-13.97-3.43-5.9-3.31-12.31-3.23-16.74.1-5.29,1.17-5.48,4.29-20.36,1.73-8.22,1.7-9.59,3.4-11.19,4.99-4.68,17.14-4.21,20.89,2.7,1.43,2.63,3.68,10-.11,10-6.1,0-14.31.7-17.8,6.59-4.13,6.97,2.23,25.55,15.29,29.82,5.82,1.9,11.39.39,14.13-.35,2.28-.62,10.4-2.82,15.14-9.86,2.62-3.88,1.89-5.79,3.75-17.41,2.78-17.34,5.21-18.9,3.28-23.39-2.34-5.44-7.26-4.49-17.82-12.33-10-7.43-9.56-11.23-14.71-14.07-15.8-8.7-52.7,9.05-60.2,35.71-2.21,7.86-.54,16.79,2.8,34.65,3.44,18.39,5.31,27.72,13,34.53,4.15,3.68,11.87,6.06,27.31,10.84,10.87,3.37,16.3,5.05,21.46,5.03,12.6-.03,21.9-5.99,28.92-10.47,10.98-7.02,16.58-14.47,27.46-28.92,11.83-15.72,12.53-21.32,12.31-25.07-.35-5.91-3.01-8.07-8.14-16.92-11.19-19.32-7.15-23.98-17.5-41.08-3.33-5.5-8.38-13.68-17.59-21.47-2.16-1.82-12.27-10.16-30.71-15.68-14.15-4.24-39.45-11.81-63.84-.42-10.25,4.79-20.41,18.11-40.71,44.74-13.28,17.42-17.18,25.28-17.81,34.87-.45,6.92.91,13,8.19,29.67,13.3,30.46,19.95,45.7,28.65,53.2,22.1,19.06,46.75,11.81,51.02,26.51,2.41,8.27-2.94,19.04-8.66,20.12-6.44,1.22-11.29-10.26-23.33-24.68-18.57-22.24-25.7-17.28-46.4-39.63-12.69-13.7-28.21-30.46-25.93-49.72,1.27-10.72,6.79-11.49,14.32-27.42,13.72-29.03,1.57-39.53,12.45-55.79,6.63-9.89,29.21-15.79,74.37-27.57,23.68-6.18,29.74-6.6,36.92-4.76,17.07,4.38,15.94,15.26,40.62,25.93,10.61,4.59,19.94,6.52,23.48,15,1.93,4.61.72,7.75.6,12.92Z"/>
  </g>
</svg>