<?xml version="1.0" encoding="UTF-8"?>
<svg id="Capa_2" data-name="Capa 2" xmlns="http://www.w3.org/2000/svg" viewBox="0 0 3729.15 900.46">
  <g id="Capa_1-2" data-name="Capa 1">
    <path d="M240.58,382.5c15.84-3.51,120.1-26.85,165.51-108.95,61.37-110.96-23.66-263.17-10.52-268.25,19.48-7.54,126.24,358.39,284.39,366.31,50.34,2.52,100.78-31.48,124.13-47.21,58.6-39.5,87.27-90.42,117.47-145.52C976.32,78.95,992.16-1.74,1000.45.03c12.98,2.77-69.36,204.74,13.58,295.32,55.56,60.69,182.03,67.83,256.43,9.76,64.13-50.06,80.7-141.68,77.16-197.36-2.17-34.16-14.23-91.06-6.53-93.14,1.72-.46,3.89,1.94,5.5,4.13,7.61,32.4,20.9,79.01,44.84,132.08,36.93,81.87,60.74,134.67,96.43,140.26,82.69,12.96,176.68-235.7,205.21-224.5,32.53,12.78-53.16,272.46-7.26,294.13,49.58,23.42,227.76-243.92,239.39-235.81,9.53,6.65-132.49,170.41-88.81,238.88,33.75,52.9,175.51,44.49,277.56-14.51,150.63-87.09,191.87-271.22,213.68-263.54,23.71,8.35-83.41,220.7-3.56,313.4,66.78,77.53,259.4,65.76,358.13-30.15,122.71-119.2,85.14-353.55,100.98-353.44,16.52.11-17.4,254.39,100.01,326.61,65.83,40.49,164.19,14.5,224.36-24.93,119.58-78.35,137.22-241.77,149.58-238.61,18.18,4.65-89,340.7-16.37,381.88,79.6,45.14,356.18-274.67,366.06-265.08,8,7.76-202.49,188.94-156.13,303.03,9.93,24.44,31.64,39.02,74.88,68.27,103.78,70.19,204.34,87.06,203.56,90.02-.83,3.14-111.83-25.16-247.85-35.64-90.98-7.01-120.35-.44-145.17,16.83-57.79,40.2-67.76,122.25-69.92,139.98-7.64,62.88,10.72,121.3,5.1,122.55-2.97.66-8.88-15.5-9.72-17.83-41.95-116.03-57.16-246.73-125.52-312.55-36.31-34.96-95.09-58.82-146.28-46.37-66.46,16.16-101.8,89.08-125.79,138.57-40.6,83.77-44.16,158.59-51.75,157.88-12.27-1.15,38.23-192.81-46.56-264.32-55.2-46.56-164.7-39.65-217.24,14.25-85.87,88.09-10.6,292.53-24.93,295.59-13.33,2.84-41.24-181.79-175.06-313.95-60.66-59.91-100.2-66.68-127.08-61.99-45.46,7.93-71.85,51.64-75.35,57.62-63.86,109.21,52.04,283.17,39.16,289.83-11.69,6.05-73.65-153.65-217.24-259.98-14.9-11.03-186.9-135.68-288.56-77.7-113.26,64.59-82.71,323.63-99.62,323.44-17.34-.2,18.55-269.74-104.56-349.64-60.47-39.25-156.15-25.84-211.73,19.41-90.76,73.88-60.66,240.59-82.4,242.04-27.09,1.81-18.37-260.73-134.36-308.66-68.51-28.31-170.15,22.57-219.84,89.43-64.05,86.19-41.24,198.23-61.37,199.88-20.23,1.65-20.39-113.11-103.44-205.14-22.86-25.33-76.92-86.46-145.52-84.16-91.71,3.08-153.57,117.36-184.68,174.84-67.51,124.74-74.03,244.48-81.96,243.41-10.19-1.38,55-191.37-31.42-328.83C146.04,400.27-4.9,366.53.12,354.7c4.6-10.83,114.99,55.56,240.45,27.79Z"/>
  </g>
</svg>