<?xml version="1.0" encoding="UTF-8"?>
<svg id="Capa_2" data-name="Capa 2" xmlns="http://www.w3.org/2000/svg" viewBox="0 0 5553.67 622.81">
  <g id="Capa_1-2" data-name="Capa 1">
    <path d="M187.31,244.63c12.34-2.24,93.51-17.17,128.86-69.68,47.78-70.96-18.42-168.32-8.19-171.57,15.17-4.82,98.29,229.22,221.42,234.28,39.19,1.61,78.46-20.13,96.64-30.2,45.63-25.26,67.95-57.83,91.46-93.07C760.15,50.49,772.48-1.11,778.94.02c10.11,1.77-54,130.94,10.57,188.88,43.26,38.81,141.73,43.38,199.65,6.24,49.93-32.02,62.84-90.61,60.08-126.22-1.69-21.85-11.08-58.24-5.08-59.57,1.34-.3,3.03,1.24,4.29,2.64,5.93,20.72,16.27,50.53,34.91,84.47,28.75,52.36,47.29,86.13,75.08,89.71,64.38,8.29,137.56-150.75,159.77-143.58,25.33,8.17-41.39,174.26-5.65,188.12,38.61,14.98,177.33-156.01,186.39-150.82,7.42,4.25-103.16,108.99-69.14,152.78,26.28,33.83,136.65,28.45,216.1-9.28,117.28-55.7,149.39-173.46,166.37-168.55,18.46,5.34-64.94,141.16-2.77,200.44,52,49.59,201.96,42.06,278.84-19.29,95.54-76.24,66.29-226.12,78.62-226.05,12.86.07-13.55,162.7,77.87,208.89,51.25,25.9,127.83,9.27,174.69-15.94,93.1-50.11,106.84-154.63,116.46-152.61,14.15,2.97-69.3,217.9-12.75,244.24,61.97,28.87,277.31-175.67,285.01-169.54,9.66,7.7-148.74,150.93-121.56,193.81,6.6,10.4,31.49,12.35,81,15.82,79.69,5.58,99.31-3.41,115.71,11.8,32.24,29.89,13.86,117.85-14.84,124.63-26.99,6.38-38.42-64.87-106.83-91.99-51.65-20.48-118.62-8.99-164.26,28.95-7.91,6.57-47,39.28-54.44,89.53-5.95,40.21,8.35,77.58,3.97,78.38-2.31.42-6.92-9.91-7.57-11.4-32.66-74.21-44.51-157.8-97.73-199.9-28.27-22.36-74.03-37.62-113.89-29.66-51.75,10.34-79.26,56.97-97.94,88.63-31.61,53.58-34.38,101.43-40.29,100.97-9.55-.74,29.76-123.31-36.25-169.05-42.97-29.78-128.24-25.36-169.14,9.11-66.86,56.34-8.25,187.1-19.41,189.05-10.38,1.82-32.11-116.27-136.3-200.79-47.23-38.32-78.02-42.65-98.94-39.65-35.4,5.07-55.94,33.03-58.67,36.85-49.72,69.85,40.52,181.11,30.49,185.37-9.1,3.87-57.35-98.27-169.14-166.27-11.6-7.06-145.52-86.78-224.67-49.7-88.18,41.31-64.4,206.98-77.56,206.86-13.5-.13,14.44-172.52-81.41-223.62-47.08-25.1-121.58-16.52-164.85,12.41-70.66,47.25-47.23,153.88-64.16,154.8-21.09,1.16-14.31-166.76-104.61-197.41-53.34-18.11-132.48,14.44-171.16,57.19-49.87,55.12-32.11,126.78-47.78,127.83-15.75,1.06-15.87-72.34-80.54-131.2-17.8-16.2-59.89-55.3-113.3-53.83-71.41,1.97-119.57,75.06-143.79,111.83-52.56,79.78-57.64,156.36-63.82,155.68-7.93-.88,42.82-122.4-24.46-210.31C113.71,256-3.81,234.42.1,226.86c3.58-6.93,89.53,35.53,187.21,17.78Z"/>
    <path d="M2832.64,327.96c12.23-2.74,92.74-20.94,125.94-74.84,44.87-72.84-25.21-167.43-15.12-171.1,14.96-5.43,107.48,225.05,230.72,225.14,39.22.03,77.59-23.29,95.34-34.08,44.57-27.09,65.55-60.53,87.62-96.7,40.02-65.58,50.26-117.64,56.75-116.77,10.17,1.36-48.66,133.02,18.2,188.29,44.8,37.03,143.37,37.62,199.74-1.84,48.6-34.01,59.12-93.08,54.92-128.55-2.58-21.76-13.43-57.74-7.49-59.32,1.32-.35,3.07,1.11,4.39,2.46,6.76,20.47,18.3,49.83,38.3,82.99,30.85,51.16,50.74,84.15,78.65,86.6,64.66,5.68,131.35-156.19,153.83-149.93,25.64,7.14-34.31,175.79,1.96,188.19,39.18,13.4,170.88-163.05,180.14-158.23,7.58,3.95-98.67,113.07-62.91,155.45,27.63,32.74,137.69,22.9,215.55-18.02,114.93-60.4,142.25-179.36,159.42-175.14,18.66,4.59-59.18,143.67,5.34,200.39,53.96,47.44,203.5,33.86,277.83-30.55,92.38-80.04,57.09-228.61,69.42-229.05,12.86-.45-6.96,163.12,86.25,205.57,52.26,23.8,128.1,4.1,173.9-23,91-53.84,100.5-158.82,110.19-157.19,14.26,2.4-60.43,220.52-2.86,244.56,63.09,26.34,269.98-186.75,277.92-180.93,6.43,4.71-152.64,127.12-113.62,198.57,8.36,15.3,25.62,23.94,60.02,41.27,82.55,41.59,161.22,49.2,160.69,51.12-.56,2.04-87.65-12.56-193.74-14.97-70.96-1.62-93.63,3.51-112.5,15.33-43.92,27.51-49.55,80.26-50.77,91.66-4.32,40.42,11.48,77.18,7.13,78.15-2.3.52-7.31-9.62-8.03-11.09-35.64-72.83-50.85-155.87-105.73-195.78-29.15-21.2-75.5-34.6-115-25.03-51.29,12.42-76.89,60.13-94.28,92.52-29.42,54.81-30.25,102.74-36.17,102.52-9.57-.35,24.75-124.42-43.05-167.45-44.14-28.01-129.16-20.15-168.63,15.94-64.53,59-.68,187.28-11.75,189.68-10.29,2.24-36.78-114.87-144.31-195.12-48.74-36.38-79.68-39.46-100.46-35.62-35.16,6.5-54.56,35.26-57.13,39.19-46.85,71.8,47.81,179.32,37.96,183.98-8.94,4.23-61.27-95.87-175.73-159.3-11.88-6.58-148.91-80.82-226.5-40.57-86.44,44.84-55.97,209.42-69.13,209.83-13.5.42,7.45-172.96-90.38-220.15-48.06-23.18-122.15-11.59-164.21,19.07-68.69,50.07-40.97,155.66-57.84,157.27-21.03,2.01-21.04-166.04-112.51-193.02-54.03-15.93-131.79,19.78-168.71,64.07-47.6,57.09-26.96,127.98-42.57,129.66-15.69,1.69-18.79-71.64-85.78-127.83-18.44-15.47-62.08-52.83-115.39-49.2-71.27,4.85-116.43,79.84-139.15,117.55-48.31,80.21-48.65,159.05-57.47,158.13-10.58-1.1,21.56-110.85-31.95-193.74-55.33-85.72-177.57-104.5-175.03-111.29,2.29-6.11,93.12,31.39,187.78,10.19Z"/>
  </g>
</svg>